<!-- Generated by readme-aura https://github.com/collectioneur/readme-aura -->
<svg width="860" height="250" viewBox="0 0 860 250" xmlns="http://www.w3.org/2000/svg"><defs><clipPath id="satori_bc-id"><path x="0" y="0" width="860" height="250" d="M16,0 h828 a16,16 0 0 1 16,16 v218 a16,16 0 0 1 -16,16 h-828 a16,16 0 0 1 -16,-16 v-218 a16,16 0 0 1 16,-16"/></clipPath></defs><clipPath id="satori_cp-id"><path x="0" y="0" width="860" height="250" d="M16,0 h828 a16,16 0 0 1 16,16 v218 a16,16 0 0 1 -16,16 h-828 a16,16 0 0 1 -16,-16 v-218 a16,16 0 0 1 16,-16"/></clipPath><mask id="satori_om-id"><rect x="1" y="1" width="858" height="248" fill="#fff"/><path width="860" height="250" fill="none" stroke="#000" stroke-width="2" d="M4.686,4.686 A16,16 0 0 1 16,0 h828 a16,16 0 0 1 16,16 v218 a16,16 0 0 1 -16,16 h-828 a16,16 0 0 1 -16,-16 v-218 A16,16 0 0 1 4.686,4.686"/></mask><path x="0" y="0" width="860" height="250" fill="#08080c" d="M16,0 h828 a16,16 0 0 1 16,16 v218 a16,16 0 0 1 -16,16 h-828 a16,16 0 0 1 -16,-16 v-218 a16,16 0 0 1 16,-16"/><path width="860" height="250" clip-path="url(#satori_bc-id)" fill="none" stroke="rgba(110,80,220,0.18)" stroke-width="2" d="M4.686,4.686 A16,16 0 0 1 16,0 h828 a16,16 0 0 1 16,16 v218 a16,16 0 0 1 -16,16 h-828 a16,16 0 0 1 -16,-16 v-218 A16,16 0 0 1 4.686,4.686"/><clipPath id="satori_cp-id-0" clip-path="url(#satori_cp-id)"><rect x="1" y="1" width="860" height="250"/></clipPath><mask id="satori_om-id-0"><rect x="1" y="1" width="860" height="250" fill="#fff" mask="url(#satori_om-id)"/></mask><svg x="1" y="1" width="860" height="250" preserveAspectRatio="none" clip-path="url(#satori_cp-id-0)" mask="url(#satori_om-id-0)"><defs><radialGradient id="g1" cx="50%" cy="50%" r="50%"><stop offset="0%" stop-color="rgba(110,20,210,0.65)"></stop><stop offset="45%" stop-color="rgba(90,15,180,0.28)"></stop><stop offset="70%" stop-color="rgba(90,15,180,0)"></stop></radialGradient><radialGradient id="g2" cx="50%" cy="50%" r="50%"><stop offset="0%" stop-color="rgba(0,150,255,0.42)"></stop><stop offset="45%" stop-color="rgba(0,110,220,0.18)"></stop><stop offset="70%" stop-color="rgba(0,110,220,0)"></stop></radialGradient><radialGradient id="g3" cx="50%" cy="50%" r="50%"><stop offset="0%" stop-color="rgba(0,200,180,0.32)"></stop><stop offset="70%" stop-color="rgba(0,200,180,0)"></stop></radialGradient><radialGradient id="g4" cx="50%" cy="50%" r="50%"><stop offset="0%" stop-color="rgba(160,30,255,0.4)"></stop><stop offset="70%" stop-color="rgba(160,30,255,0)"></stop></radialGradient><linearGradient id="scg-hero" x1="0%" y1="0%" x2="100%" y2="0%"><stop offset="0%" stop-color="rgba(120,200,255,0)"></stop><stop offset="45%" stop-color="rgba(150,180,255,0.18)"></stop><stop offset="50%" stop-color="rgba(190,150,255,0.55)"></stop><stop offset="55%" stop-color="rgba(150,180,255,0.18)"></stop><stop offset="100%" stop-color="rgba(120,200,255,0)"></stop></linearGradient></defs><ellipse id="glow-1" cx="200" cy="70" rx="260" ry="150" fill="url(#g1)"></ellipse><ellipse id="glow-2" cx="660" cy="80" rx="240" ry="150" fill="url(#g2)"></ellipse><ellipse id="glow-3" cx="720" cy="170" rx="180" ry="120" fill="url(#g3)"></ellipse><ellipse id="glow-4" cx="140" cy="180" rx="180" ry="120" fill="url(#g4)"></ellipse><circle key="star-0" id="star-0" cx="801" cy="110" r="0.6" fill="#ffffff"></circle><circle key="star-1" id="star-1" cx="586" cy="79" r="0.7" fill="#7ee7ff"></circle><circle key="star-2" id="star-2" cx="695" cy="175" r="1.6" fill="#e8c8ff"></circle><circle key="star-3" id="star-3" cx="705" cy="216" r="1.0" fill="#ff9ecb"></circle><circle key="star-4" id="star-4" cx="570" cy="155" r="0.5" fill="#ffffff"></circle><circle key="star-5" id="star-5" cx="260" cy="203" r="0.5" fill="#7ee7ff"></circle><circle key="star-6" id="star-6" cx="439" cy="57" r="0.9" fill="#e8c8ff"></circle><circle key="star-7" id="star-7" cx="332" cy="62" r="0.8" fill="#ff9ecb"></circle><circle key="star-8" id="star-8" cx="486" cy="103" r="1.2" fill="#ffffff"></circle><circle key="star-9" id="star-9" cx="386" cy="53" r="0.7" fill="#7ee7ff"></circle><circle key="star-10" id="star-10" cx="776" cy="61" r="1.4" fill="#e8c8ff"></circle><circle key="star-11" id="star-11" cx="730" cy="160" r="1.2" fill="#ff9ecb"></circle><circle key="star-12" id="star-12" cx="45" cy="132" r="0.5" fill="#ffffff"></circle><circle key="star-13" id="star-13" cx="67" cy="34" r="1.0" fill="#7ee7ff"></circle><circle key="star-14" id="star-14" cx="251" cy="118" r="0.7" fill="#e8c8ff"></circle><circle key="star-15" id="star-15" cx="199" cy="74" r="1.1" fill="#ff9ecb"></circle><rect id="scan-hero" x="-260" y="118" width="260" height="2.5" fill="url(#scg-hero)"></rect><style>

          @keyframes float-slow {
            0%, 100% { transform: translateX(0px); opacity: 0.8; }
            50% { transform: translateX(30px); opacity: 1.05; }
          }
          @keyframes float-medium {
            0%, 100% { transform: translateX(0px); opacity: 0.7; }
            50% { transform: translateX(-25px); opacity: 1.0; }
          }
          @keyframes float-fast {
            0%, 100% { transform: translateX(0px); opacity: 0.9; }
            50% { transform: translateX(20px); opacity: 0.65; }
          }
          @keyframes twinkle {
            0%, 100% { opacity: 0.15; }
            50% { opacity: 0.95; }
          }
          @keyframes scan-move {
            0% { transform: translateX(0px); opacity: 0; }
            10% { opacity: 1; }
            90% { opacity: 1; }
            100% { transform: translateX(1180px); opacity: 0; }
          }
          #glow-1 { animation: float-slow 8s ease-in-out infinite; }
          #glow-2 { animation: float-medium 12s ease-in-out infinite; }
          #glow-3 { animation: float-fast 9s ease-in-out infinite; }
          #glow-4 { animation: float-slow 11s ease-in-out infinite reverse; }
          #scan-hero { animation: scan-move 6s linear infinite; }
          #star-0 { animation: twinkle 3.8s ease-in-out infinite; animation-delay: 2.5s; } #star-1 { animation: twinkle 5.2s ease-in-out infinite; animation-delay: 3.5s; } #star-2 { animation: twinkle 4.6s ease-in-out infinite; animation-delay: 2.1s; } #star-3 { animation: twinkle 6.3s ease-in-out infinite; animation-delay: 1.2s; } #star-4 { animation: twinkle 5.2s ease-in-out infinite; animation-delay: 1.5s; } #star-5 { animation: twinkle 3.3s ease-in-out infinite; animation-delay: 2.4s; } #star-6 { animation: twinkle 4.0s ease-in-out infinite; animation-delay: 2.9s; } #star-7 { animation: twinkle 4.5s ease-in-out infinite; animation-delay: 2.8s; } #star-8 { animation: twinkle 3.1s ease-in-out infinite; animation-delay: 0.8s; } #star-9 { animation: twinkle 5.2s ease-in-out infinite; animation-delay: 1.0s; } #star-10 { animation: twinkle 4.7s ease-in-out infinite; animation-delay: 0.7s; } #star-11 { animation: twinkle 6.6s ease-in-out infinite; animation-delay: 2.3s; } #star-12 { animation: twinkle 3.7s ease-in-out infinite; animation-delay: 3.6s; } #star-13 { animation: twinkle 6.8s ease-in-out infinite; animation-delay: 1.6s; } #star-14 { animation: twinkle 5.7s ease-in-out infinite; animation-delay: 1.2s; } #star-15 { animation: twinkle 6.7s ease-in-out infinite; animation-delay: 1.8s; }
        
</style>
</svg><mask id="satori_om-id-0-0"><rect x="1" y="1" width="0" height="250" fill="#fff" mask="url(#satori_om-id)"/></mask><mask id="satori_om-id-0-0-0"><rect x="1" y="1" width="0" height="250" fill="#fff" mask="url(#satori_om-id)"/></mask><mask id="satori_om-id-0-0-0-0"><rect x="1" y="1" width="0" height="250" fill="#fff" mask="url(#satori_om-id)"/></mask><mask id="satori_om-id-0-0-0-1"><rect x="1" y="1" width="0" height="250" fill="#fff" mask="url(#satori_om-id)"/></mask><mask id="satori_om-id-0-0-0-2"><rect x="1" y="1" width="0" height="250" fill="#fff" mask="url(#satori_om-id)"/></mask><mask id="satori_om-id-0-0-1"><rect x="1" y="1" width="0" height="250" fill="#fff" mask="url(#satori_om-id)"/></mask><mask id="satori_om-id-0-0-1-0"><rect x="1" y="1" width="0" height="250" fill="#fff" mask="url(#satori_om-id)"/></mask><mask id="satori_om-id-0-0-1-1"><rect x="1" y="1" width="0" height="250" fill="#fff" mask="url(#satori_om-id)"/></mask><mask id="satori_om-id-0-0-1-2"><rect x="1" y="1" width="0" height="250" fill="#fff" mask="url(#satori_om-id)"/></mask><mask id="satori_om-id-0-0-2"><rect x="1" y="1" width="0" height="250" fill="#fff" mask="url(#satori_om-id)"/></mask><mask id="satori_om-id-0-0-2-0"><rect x="1" y="1" width="0" height="250" fill="#fff" mask="url(#satori_om-id)"/></mask><mask id="satori_om-id-0-0-2-1"><rect x="1" y="1" width="0" height="250" fill="#fff" mask="url(#satori_om-id)"/></mask><mask id="satori_om-id-0-0-3"><rect x="1" y="1" width="0" height="250" fill="#fff" mask="url(#satori_om-id)"/></mask><mask id="satori_om-id-0-0-3-0"><rect x="1" y="1" width="0" height="250" fill="#fff" mask="url(#satori_om-id)"/></mask><mask id="satori_om-id-0-0-3-1"><rect x="1" y="1" width="0" height="250" fill="#fff" mask="url(#satori_om-id)"/></mask><mask id="satori_om-id-0-0-4"><rect x="1" y="1" width="0" height="250" fill="#fff" mask="url(#satori_om-id)"/></mask><mask id="satori_om-id-0-0-4-0"><rect x="1" y="1" width="0" height="250" fill="#fff" mask="url(#satori_om-id)"/></mask><mask id="satori_om-id-0-0-4-1"><rect x="1" y="1" width="0" height="250" fill="#fff" mask="url(#satori_om-id)"/></mask><mask id="satori_om-id-0-0-4-2"><rect x="1" y="1" width="0" height="250" fill="#fff" mask="url(#satori_om-id)"/></mask><mask id="satori_om-id-0-0-4-3"><rect x="1" y="1" width="0" height="250" fill="#fff" mask="url(#satori_om-id)"/></mask><mask id="satori_om-id-0-0-4-4"><rect x="1" y="1" width="0" height="250" fill="#fff" mask="url(#satori_om-id)"/></mask><mask id="satori_om-id-0-1"><rect x="1" y="1" width="0" height="250" fill="#fff" mask="url(#satori_om-id)"/></mask><mask id="satori_om-id-0-2"><rect x="1" y="1" width="0" height="250" fill="#fff" mask="url(#satori_om-id)"/></mask><mask id="satori_om-id-0-3"><rect x="1" y="1" width="0" height="250" fill="#fff" mask="url(#satori_om-id)"/></mask><mask id="satori_om-id-0-4"><rect x="1" y="1" width="0" height="250" fill="#fff" mask="url(#satori_om-id)"/></mask><mask id="satori_om-id-0-5"><rect x="1" y="1" width="0" height="250" fill="#fff" mask="url(#satori_om-id)"/></mask><mask id="satori_om-id-0-6"><rect x="1" y="1" width="0" height="250" fill="#fff" mask="url(#satori_om-id)"/></mask><mask id="satori_om-id-0-7"><rect x="1" y="1" width="0" height="250" fill="#fff" mask="url(#satori_om-id)"/></mask><mask id="satori_om-id-0-8"><rect x="1" y="1" width="0" height="250" fill="#fff" mask="url(#satori_om-id)"/></mask><mask id="satori_om-id-0-9"><rect x="1" y="1" width="0" height="250" fill="#fff" mask="url(#satori_om-id)"/></mask><mask id="satori_om-id-0-10"><rect x="1" y="1" width="0" height="250" fill="#fff" mask="url(#satori_om-id)"/></mask><mask id="satori_om-id-0-11"><rect x="1" y="1" width="0" height="250" fill="#fff" mask="url(#satori_om-id)"/></mask><mask id="satori_om-id-0-12"><rect x="1" y="1" width="0" height="250" fill="#fff" mask="url(#satori_om-id)"/></mask><mask id="satori_om-id-0-13"><rect x="1" y="1" width="0" height="250" fill="#fff" mask="url(#satori_om-id)"/></mask><mask id="satori_om-id-0-14"><rect x="1" y="1" width="0" height="250" fill="#fff" mask="url(#satori_om-id)"/></mask><mask id="satori_om-id-0-15"><rect x="1" y="1" width="0" height="250" fill="#fff" mask="url(#satori_om-id)"/></mask><mask id="satori_om-id-0-16"><rect x="1" y="1" width="0" height="250" fill="#fff" mask="url(#satori_om-id)"/></mask><mask id="satori_om-id-0-17"><rect x="1" y="1" width="0" height="250" fill="#fff" mask="url(#satori_om-id)"/></mask><mask id="satori_om-id-0-18"><rect x="1" y="1" width="0" height="250" fill="#fff" mask="url(#satori_om-id)"/></mask><mask id="satori_om-id-0-19"><rect x="1" y="1" width="0" height="250" fill="#fff" mask="url(#satori_om-id)"/></mask><mask id="satori_om-id-0-20"><rect x="1" y="1" width="0" height="250" fill="#fff" mask="url(#satori_om-id)"/></mask><mask id="satori_om-id-0-21"><rect x="1" y="1" width="0" height="250" fill="#fff" mask="url(#satori_om-id)"/></mask><defs><clipPath id="satori_bc-id-1" clip-path="url(#satori_cp-id)"><rect x="21" y="21" width="22" height="22"/></clipPath></defs><mask id="satori_om-id-1"><rect x="23" y="23" width="20" height="20" fill="#fff" mask="url(#satori_om-id)"/><path width="22" height="22" fill="none" stroke="#000" stroke-width="4" d="M21,21 A0,0 0 0 1 21,21 h22 A0,0 0 0 1 43,21"/><path width="22" height="22" fill="none" stroke="#000" stroke-width="4" d="M21,43 A0,0 0 0 1 21,43 v-22 A0,0 0 0 1 21,21"/></mask><path width="22" height="22" clip-path="url(#satori_bc-id-1)" fill="none" stroke="rgba(255,120,170,0.55)" stroke-width="4" d="M21,21 A0,0 0 0 1 21,21 h22 A0,0 0 0 1 43,21"/><path width="22" height="22" clip-path="url(#satori_bc-id-1)" fill="none" stroke="rgba(255,120,170,0.55)" stroke-width="4" d="M21,43 A0,0 0 0 1 21,43 v-22 A0,0 0 0 1 21,21"/><defs><clipPath id="satori_bc-id-2" clip-path="url(#satori_cp-id)"><rect x="817" y="207" width="22" height="22"/></clipPath></defs><mask id="satori_om-id-2"><rect x="817" y="207" width="20" height="20" fill="#fff" mask="url(#satori_om-id)"/><path width="22" height="22" fill="none" stroke="#000" stroke-width="4" d="M839,207 A0,0 0 0 1 839,207 v22 a0,0 0 0 1 0,0 h-22 A0,0 0 0 1 817,229"/></mask><path width="22" height="22" clip-path="url(#satori_bc-id-2)" fill="none" stroke="rgba(255,120,170,0.55)" stroke-width="4" d="M839,207 A0,0 0 0 1 839,207 v22 a0,0 0 0 1 0,0 h-22 A0,0 0 0 1 817,229"/><mask id="satori_om-id-3"><rect x="338" y="69" width="185" height="40" fill="#fff" mask="url(#satori_om-id)"/></mask><g mask="url(#satori_om-id)" clip-path="url(#satori_cp-id)"><path fill="#ffffff" d="M360.1 104L340.6 104L340.6 74.9L360.1 74.9L360.1 79.8L346.6 79.8L346.6 86.9L359.1 86.9L359.1 91.7L346.6 91.7L346.6 99.1L360.1 99.1L360.1 104ZM385.2 104L377.4 104L367.3 74.9L373.9 74.9L378.5 88.9Q379.4 91.6 380.2 94.8L380.2 94.8Q380.8 96.9 381.4 99.2L381.4 99.2Q382.0 96.9 382.5 94.8L382.5 94.8Q383.3 91.6 384.1 88.9L384.1 88.9L388.6 74.9L395.2 74.9L385.2 104ZM422.3 104L402.8 104L402.8 74.9L422.3 74.9L422.3 79.8L408.8 79.8L408.8 86.9L421.3 86.9L421.3 91.7L408.8 91.7L408.8 99.1L422.3 99.1L422.3 104ZM449.6 104L431.1 104L431.1 74.9L437.1 74.9L437.1 99.1L449.6 99.1L449.6 104ZM472.8 104L466.8 104L466.8 93.1L456.0 74.9L463.0 74.9L467.9 84.0Q468.7 85.3 469.3 86.7L469.3 86.7Q469.5 87.3 469.8 88.0L469.8 88.0Q470.1 87.3 470.3 86.7L470.3 86.7Q470.9 85.3 471.6 84.0L471.6 84.0L476.4 74.9L483.4 74.9L472.8 93.1L472.8 104ZM497.0 104L490.9 104L490.9 74.9L497.6 74.9L506.8 89.6Q507.5 90.8 508.2 92.1Q508.9 93.4 509.7 95.0L509.7 95.0Q510.1 95.8 510.4 96.7L510.4 96.7Q510.4 96.0 510.3 95.2L510.3 95.2Q510.2 93.4 510.1 91.7Q510.1 90.0 510.1 88.9L510.1 88.9L510.1 74.9L516.2 74.9L516.2 104L509.5 104L501.1 90.6Q500.2 89.1 499.4 87.7Q498.7 86.3 497.8 84.6L497.8 84.6Q497.3 83.6 496.7 82.2L496.7 82.2Q496.7 83.4 496.8 84.5L496.8 84.5Q496.9 86.5 497.0 88.1Q497.0 89.6 497.0 90.6L497.0 90.6L497.0 104Z "/></g><mask id="satori_om-id-4"><rect x="302" y="127" width="257" height="17" fill="#fff" mask="url(#satori_om-id)"/></mask><g mask="url(#satori_om-id)" clip-path="url(#satori_cp-id)"><path fill="rgba(150,210,255,0.85)" d="M306.7 141.2L306.7 141.2Q305.4 141.2 304.5 140.8Q303.6 140.4 303.1 139.7Q302.6 138.9 302.6 137.8L302.6 137.8L304.6 137.8Q304.7 138.4 304.9 138.7Q305.2 139.0 305.6 139.2Q306.1 139.4 306.6 139.4L306.6 139.4Q307.2 139.4 307.6 139.2Q308.0 139.1 308.3 138.8Q308.5 138.5 308.5 138.1L308.5 138.1Q308.5 137.7 308.3 137.5Q308.1 137.3 307.7 137.1Q307.3 136.9 306.7 136.8L306.7 136.8L305.6 136.5Q304.3 136.2 303.6 135.5Q302.9 134.9 302.9 133.7L302.9 133.7Q302.9 132.8 303.4 132.1Q303.8 131.4 304.7 131.1Q305.6 130.7 306.7 130.7L306.7 130.7Q307.8 130.7 308.7 131.1Q309.5 131.5 310.0 132.1Q310.4 132.8 310.4 133.7L310.4 133.7L308.4 133.7Q308.4 133.1 307.9 132.8Q307.4 132.4 306.7 132.4L306.7 132.4Q306.1 132.4 305.8 132.6Q305.4 132.7 305.2 133.0Q305.0 133.3 305.0 133.6L305.0 133.6Q305.0 134.0 305.2 134.2Q305.4 134.5 305.8 134.6Q306.2 134.8 306.6 134.9L306.6 134.9L307.5 135.1Q308.2 135.3 308.7 135.5Q309.3 135.8 309.7 136.1Q310.1 136.5 310.4 137.0Q310.6 137.5 310.6 138.1L310.6 138.1Q310.6 139.0 310.1 139.7Q309.7 140.4 308.8 140.8Q307.9 141.2 306.7 141.2ZM321.6 141.1L321.6 141.1Q320.2 141.1 319.1 140.5Q318.1 139.9 317.4 138.7Q316.8 137.6 316.8 135.9L316.8 135.9Q316.8 134.3 317.4 133.1Q318.1 131.9 319.1 131.3Q320.2 130.7 321.6 130.7L321.6 130.7Q322.9 130.7 324.0 131.3Q325.1 131.9 325.7 133.1Q326.3 134.3 326.3 135.9L326.3 135.9Q326.3 137.6 325.7 138.7Q325.1 139.9 324.0 140.5Q322.9 141.1 321.6 141.1ZM321.6 139.3L321.6 139.3Q322.4 139.3 322.9 138.9Q323.5 138.5 323.9 137.8Q324.2 137.0 324.2 135.9L324.2 135.9Q324.2 134.8 323.9 134.1Q323.5 133.3 322.9 132.9Q322.4 132.5 321.6 132.5L321.6 132.5Q320.8 132.5 320.2 132.9Q319.6 133.3 319.3 134.1Q318.9 134.8 318.9 135.9L318.9 135.9Q318.9 137.0 319.3 137.8Q319.6 138.5 320.2 138.9Q320.8 139.3 321.6 139.3ZM335.0 141L332.9 141L332.9 130.8L339.6 130.8L339.6 132.5L335.0 132.5L335.0 135.4L339.1 135.4L339.1 137.1L335.0 137.1L335.0 141ZM348.8 132.5L345.7 132.5L345.7 130.8L354.0 130.8L354.0 132.5L350.9 132.5L350.9 141L348.8 141L348.8 132.5ZM365.0 141L362.6 141L359.9 130.8L362.1 130.8L363.3 135.8Q363.5 136.5 363.6 137.2Q363.7 137.9 363.8 138.6L363.8 138.6Q363.8 138.8 363.9 138.9L363.9 138.9Q363.9 138.8 363.9 138.6L363.9 138.6Q364.0 137.9 364.2 137.2Q364.3 136.5 364.5 135.8L364.5 135.8L365.7 130.8L367.9 130.8L369.1 135.8Q369.3 136.5 369.4 137.2Q369.5 137.9 369.6 138.6L369.6 138.6Q369.7 138.8 369.7 138.9L369.7 138.9Q369.7 138.8 369.7 138.6L369.7 138.6Q369.9 137.9 370.0 137.2Q370.1 136.5 370.2 135.8L370.2 135.8L371.4 130.8L373.7 130.8L371.0 141L368.6 141L367.2 135.8Q367.0 134.9 366.9 133.9L366.9 133.9Q366.8 133.6 366.8 133.3L366.8 133.3Q366.7 133.6 366.7 133.9L366.7 133.9Q366.6 134.9 366.3 135.8L366.3 135.8L365.0 141ZM381.7 141L379.4 141L382.9 130.8L385.6 130.8L389.2 141L386.8 141L386.1 138.6L382.4 138.6L381.7 141ZM383.0 137.0L385.5 137.0L385.2 136.1Q384.9 135.1 384.6 134L384.6 134Q384.4 133.3 384.2 132.5L384.2 132.5Q384.0 133.3 383.8 134.0L383.8 134.0Q383.5 135.2 383.3 136.1L383.3 136.1L383.0 137.0ZM397.5 141L395.4 141L395.4 130.8L399.4 130.8Q400.6 130.8 401.4 131.2Q402.2 131.6 402.6 132.4Q403.0 133.1 403.0 134.1Q403.0 135.1 402.6 135.9Q402.2 136.6 401.3 137.0L401.3 137.0Q401.3 137.0 401.2 137.0L401.2 137.0L403.4 141L401.1 141L399.1 137.4L397.5 137.4L397.5 141ZM397.5 132.5L397.5 135.7L399.0 135.7Q399.6 135.7 400.1 135.5Q400.5 135.3 400.7 135.0Q400.9 134.6 400.9 134.1L400.9 134.1Q400.9 133.6 400.7 133.3Q400.5 132.9 400.1 132.7Q399.6 132.5 399.0 132.5L399.0 132.5L397.5 132.5ZM416.4 141L409.6 141L409.6 130.8L416.4 130.8L416.4 132.5L411.7 132.5L411.7 135.0L416.1 135.0L416.1 136.7L411.7 136.7L411.7 139.3L416.4 139.3L416.4 141Z M435.0 141L435.0 141L431.4 141L431.4 130.8L435.0 130.8Q436.6 130.8 437.7 131.4Q438.8 132.0 439.4 133.2Q440.0 134.3 440.0 135.9L440.0 135.9Q440.0 137.5 439.4 138.6Q438.8 139.8 437.7 140.4Q436.6 141 435.0 141ZM433.5 132.6L433.5 139.2L434.9 139.2Q435.9 139.2 436.6 138.9Q437.2 138.5 437.6 137.8Q437.9 137.0 437.9 135.9L437.9 135.9Q437.9 134.8 437.6 134.0Q437.2 133.3 436.6 133.0Q435.9 132.6 434.9 132.6L434.9 132.6L433.5 132.6ZM453.4 141L446.5 141L446.5 130.8L453.4 130.8L453.4 132.5L448.6 132.5L448.6 135.0L453.0 135.0L453.0 136.7L448.6 136.7L448.6 139.3L453.4 139.3L453.4 141ZM465.8 141L463.0 141L459.5 130.8L461.8 130.8L463.4 135.7Q463.7 136.7 464.0 137.8L464.0 137.8Q464.2 138.5 464.4 139.3L464.4 139.3Q464.6 138.5 464.8 137.8L464.8 137.8Q465.1 136.7 465.4 135.7L465.4 135.7L466.9 130.8L469.2 130.8L465.8 141ZM482.3 141L475.5 141L475.5 130.8L482.3 130.8L482.3 132.5L477.6 132.5L477.6 135.0L482.0 135.0L482.0 136.7L477.6 136.7L477.6 139.3L482.3 139.3L482.3 141ZM495.5 141L489.0 141L489.0 130.8L491.1 130.8L491.1 139.3L495.5 139.3L495.5 141ZM506.4 141.1L506.4 141.1Q505.0 141.1 504.0 140.5Q502.9 139.9 502.3 138.7Q501.6 137.6 501.6 135.9L501.6 135.9Q501.6 134.3 502.3 133.1Q502.9 131.9 504.0 131.3Q505.0 130.7 506.4 130.7L506.4 130.7Q507.7 130.7 508.8 131.3Q509.9 131.9 510.5 133.1Q511.1 134.3 511.1 135.9L511.1 135.9Q511.1 137.6 510.5 138.7Q509.9 139.9 508.8 140.5Q507.7 141.1 506.4 141.1ZM506.4 139.3L506.4 139.3Q507.2 139.3 507.8 138.9Q508.4 138.5 508.7 137.8Q509.0 137.0 509.0 135.9L509.0 135.9Q509.0 134.8 508.7 134.1Q508.4 133.3 507.8 132.9Q507.2 132.5 506.4 132.5L506.4 132.5Q505.6 132.5 505.0 132.9Q504.4 133.3 504.1 134.1Q503.8 134.8 503.8 135.9L503.8 135.9Q503.8 137.0 504.1 137.8Q504.4 138.5 505.0 138.9Q505.6 139.3 506.4 139.3ZM519.8 141L517.7 141L517.7 130.8L521.7 130.8Q522.8 130.8 523.7 131.3Q524.5 131.7 524.9 132.5Q525.3 133.2 525.3 134.3L525.3 134.3Q525.3 135.3 524.9 136.0Q524.5 136.8 523.6 137.2Q522.8 137.7 521.6 137.7L521.6 137.7L519.8 137.7L519.8 141ZM519.8 132.5L519.8 136.0L521.3 136.0Q521.9 136.0 522.3 135.8Q522.8 135.5 523.0 135.2Q523.2 134.8 523.2 134.3Q523.2 133.7 523.0 133.4Q522.8 133.0 522.3 132.8Q521.9 132.5 521.3 132.5L521.3 132.5L519.8 132.5ZM538.6 141L531.8 141L531.8 130.8L538.6 130.8L538.6 132.5L533.9 132.5L533.9 135.0L538.2 135.0L538.2 136.7L533.9 136.7L533.9 139.3L538.6 139.3L538.6 141ZM547.4 141L545.3 141L545.3 130.8L549.3 130.8Q550.4 130.8 551.2 131.2Q552.0 131.6 552.5 132.4Q552.9 133.1 552.9 134.1Q552.9 135.1 552.5 135.9Q552.0 136.6 551.2 137.0L551.2 137.0Q551.1 137.0 551.1 137.0L551.1 137.0L553.3 141L550.9 141L549.0 137.4L547.4 137.4L547.4 141ZM547.4 132.5L547.4 135.7L548.9 135.7Q549.5 135.7 549.9 135.5Q550.3 135.3 550.5 135.0Q550.7 134.6 550.7 134.1L550.7 134.1Q550.7 133.6 550.5 133.3Q550.3 132.9 549.9 132.7Q549.5 132.5 548.9 132.5L548.9 132.5L547.4 132.5Z "/></g><mask id="satori_om-id-5"><rect x="348" y="166" width="164" height="15" fill="#fff" mask="url(#satori_om-id)"/></mask><g mask="url(#satori_om-id)" clip-path="url(#satori_cp-id)"><path fill="rgba(170,160,210,0.5)" d="M351.6 180.6L351.6 180.6Q350.9 180.6 350.3 180.4Q349.8 180.2 349.4 179.9Q349.1 179.6 348.9 179.3L348.9 179.3L349.7 178.7Q349.9 178.9 350.1 179.1Q350.3 179.3 350.7 179.5Q351.0 179.7 351.6 179.7L351.6 179.7Q352.4 179.7 352.9 179.3Q353.4 178.9 353.4 178.1L353.4 178.1L353.4 176.8L353.3 176.8Q353.2 177.0 353.0 177.2Q352.8 177.5 352.4 177.7Q352.0 177.9 351.4 177.9L351.4 177.9Q350.6 177.9 350.0 177.5Q349.3 177.2 349.0 176.4Q348.6 175.7 348.6 174.7L348.6 174.7Q348.6 173.7 349.0 172.9Q349.3 172.2 350.0 171.8Q350.6 171.4 351.4 171.4L351.4 171.4Q352.0 171.4 352.4 171.6Q352.8 171.8 353.0 172.1Q353.2 172.3 353.3 172.5L353.3 172.5L353.4 172.5L353.4 171.4L354.4 171.4L354.4 178.2Q354.4 179.0 354.1 179.5Q353.7 180.1 353.0 180.3Q352.4 180.6 351.6 180.6ZM351.6 177.0L351.6 177.0Q352.1 177.0 352.6 176.7Q353.0 176.4 353.2 175.9Q353.4 175.4 353.4 174.7L353.4 174.7Q353.4 174.0 353.2 173.4Q353.0 172.9 352.6 172.6Q352.2 172.3 351.6 172.3L351.6 172.3Q350.9 172.3 350.5 172.6Q350.1 172.9 349.9 173.5Q349.7 174.0 349.7 174.7L349.7 174.7Q349.7 175.3 349.9 175.9Q350.1 176.4 350.5 176.7Q350.9 177.0 351.6 177.0ZM358.3 178L357.3 178L357.3 171.4L358.3 171.4L358.3 178ZM357.8 170.4L357.8 170.4Q357.5 170.4 357.3 170.2Q357.1 170.0 357.1 169.7L357.1 169.7Q357.1 169.4 357.3 169.2Q357.5 169.0 357.8 169.0L357.8 169.0Q358.1 169.0 358.3 169.2Q358.6 169.4 358.6 169.7L358.6 169.7Q358.6 170.0 358.3 170.2Q358.1 170.4 357.8 170.4ZM362.4 171.4L363.8 171.4L363.8 172.4L362.4 172.4L362.4 176.3Q362.4 176.7 362.6 176.9Q362.8 177.1 363.2 177.1L363.2 177.1Q363.3 177.1 363.5 177.1Q363.6 177.1 363.7 177.1L363.7 177.1L364.0 178.0Q363.8 178.0 363.6 178.1Q363.4 178.1 363.2 178.1L363.2 178.1Q362.3 178.1 361.8 177.6Q361.4 177.2 361.4 176.4L361.4 176.4L361.4 172.4L360.4 172.4L360.4 171.4L361.4 171.4L361.4 169.9L362.4 169.9L362.4 171.4ZM367.2 174.1L367.2 174.1L367.2 178L366.1 178L366.1 169.3L367.2 169.3L367.2 172.6Q367.4 172.0 367.8 171.7L367.8 171.7Q368.4 171.4 369.1 171.4L369.1 171.4Q369.8 171.4 370.3 171.6Q370.8 171.9 371.1 172.5Q371.4 173.0 371.4 173.8L371.4 173.8L371.4 178L370.3 178L370.3 173.9Q370.3 173.2 369.9 172.7Q369.5 172.3 368.8 172.3L368.8 172.3Q368.4 172.3 368.0 172.5Q367.6 172.7 367.4 173.1Q367.2 173.5 367.2 174.1ZM376.4 178.1L376.4 178.1Q375.8 178.1 375.3 177.8Q374.8 177.5 374.5 177.0Q374.2 176.4 374.2 175.6L374.2 175.6L374.2 171.4L375.3 171.4L375.3 175.5Q375.3 176.3 375.7 176.7Q376.1 177.1 376.8 177.1L376.8 177.1Q377.2 177.1 377.6 176.9Q378.0 176.7 378.2 176.3Q378.4 175.9 378.4 175.4L378.4 175.4L378.4 171.4L379.5 171.4L379.5 178L378.4 178L378.4 176.8Q378.2 177.4 377.7 177.7L377.7 177.7Q377.2 178.1 376.4 178.1ZM385.3 178.1L385.3 178.1Q384.7 178.1 384.3 177.9Q384.0 177.7 383.8 177.4Q383.6 177.2 383.4 177.0L383.4 177.0L383.3 177.0L383.3 178L382.3 178L382.3 169.3L383.4 169.3L383.4 172.5L383.4 172.5Q383.6 172.3 383.8 172.1Q384.0 171.8 384.3 171.6Q384.7 171.4 385.3 171.4L385.3 171.4Q386.2 171.4 386.8 171.8Q387.4 172.2 387.8 172.9Q388.1 173.7 388.1 174.7L388.1 174.7Q388.1 175.8 387.8 176.5Q387.4 177.3 386.8 177.7Q386.2 178.1 385.3 178.1ZM385.2 177.2L385.2 177.2Q385.8 177.2 386.2 176.9Q386.6 176.5 386.8 176.0Q387.0 175.4 387.0 174.7L387.0 174.7Q387.0 174.1 386.8 173.5Q386.6 173.0 386.2 172.6Q385.8 172.3 385.2 172.3L385.2 172.3Q384.6 172.3 384.2 172.6Q383.8 172.9 383.6 173.5Q383.4 174.0 383.4 174.7L383.4 174.7Q383.4 175.5 383.6 176.0Q383.8 176.6 384.2 176.9Q384.6 177.2 385.2 177.2ZM391.5 178.1L391.5 178.1Q391.1 178.1 390.9 177.8Q390.7 177.6 390.7 177.3L390.7 177.3Q390.7 177.0 390.9 176.7Q391.1 176.5 391.5 176.5L391.5 176.5Q391.8 176.5 392.0 176.7Q392.3 177.0 392.3 177.3L392.3 177.3Q392.3 177.6 392.0 177.8Q391.8 178.1 391.5 178.1ZM397.8 178.1L397.8 178.1Q396.9 178.1 396.2 177.7Q395.5 177.3 395.2 176.5Q394.8 175.8 394.8 174.8L394.8 174.8Q394.8 173.7 395.2 173.0Q395.5 172.2 396.2 171.8Q396.9 171.4 397.8 171.4L397.8 171.4Q398.3 171.4 398.7 171.5Q399.1 171.6 399.4 171.8Q399.8 172.1 400.0 172.4Q400.3 172.8 400.4 173.2L400.4 173.2L399.4 173.5Q399.3 173.2 399.2 173.0Q399.1 172.8 398.8 172.6Q398.6 172.5 398.4 172.4Q398.1 172.3 397.8 172.3L397.8 172.3Q397.1 172.3 396.7 172.7Q396.3 173.0 396.1 173.6Q395.9 174.1 395.9 174.8L395.9 174.8Q395.9 175.4 396.1 176.0Q396.3 176.5 396.7 176.9Q397.1 177.2 397.8 177.2L397.8 177.2Q398.1 177.2 398.4 177.1Q398.7 177.0 398.9 176.9Q399.1 176.7 399.2 176.5Q399.4 176.3 399.4 176.0L399.4 176.0L400.5 176.3Q400.3 176.7 400.1 177.1Q399.8 177.4 399.5 177.6Q399.1 177.9 398.7 178.0Q398.3 178.1 397.8 178.1ZM405.6 178.1L405.6 178.1Q404.7 178.1 404.1 177.7Q403.4 177.3 403.0 176.5Q402.7 175.8 402.7 174.8L402.7 174.8Q402.7 173.7 403.0 173.0Q403.4 172.2 404.1 171.8Q404.7 171.4 405.6 171.4L405.6 171.4Q406.5 171.4 407.2 171.8Q407.9 172.2 408.3 173.0Q408.6 173.7 408.6 174.8L408.6 174.8Q408.6 175.8 408.3 176.5Q407.9 177.3 407.2 177.7Q406.5 178.1 405.6 178.1ZM405.6 177.2L405.6 177.2Q406.3 177.2 406.7 176.9Q407.2 176.5 407.4 176.0Q407.6 175.4 407.6 174.8L407.6 174.8Q407.6 174.1 407.4 173.6Q407.2 173.0 406.7 172.7Q406.3 172.3 405.6 172.3L405.6 172.3Q405.0 172.3 404.6 172.7Q404.1 173.0 403.9 173.6Q403.7 174.1 403.7 174.8L403.7 174.8Q403.7 175.4 403.9 176.0Q404.1 176.5 404.6 176.9Q405.0 177.2 405.6 177.2ZM412.2 178L411.2 178L411.2 171.4L412.2 171.4L412.2 172.7Q412.3 172.3 412.5 172.0L412.5 172.0Q412.8 171.7 413.2 171.5Q413.6 171.3 414.0 171.3L414.0 171.3Q414.7 171.3 415.2 171.8L415.2 171.8Q415.5 172.1 415.7 172.7L415.7 172.7Q415.8 172.3 416.0 172.1L416.0 172.1Q416.4 171.7 416.8 171.5Q417.2 171.3 417.8 171.3L417.8 171.3Q418.3 171.3 418.8 171.6Q419.3 171.8 419.5 172.3Q419.8 172.8 419.8 173.6L419.8 173.6L419.8 178L418.8 178L418.8 173.6Q418.8 172.9 418.4 172.6Q418.0 172.3 417.4 172.3L417.4 172.3Q417.0 172.3 416.7 172.5Q416.4 172.7 416.2 173.0Q416.0 173.3 416.0 173.7L416.0 173.7L416.0 178L415.0 178L415.0 173.5Q415.0 173.0 414.6 172.6Q414.2 172.3 413.7 172.3L413.7 172.3Q413.3 172.3 413.0 172.5Q412.6 172.7 412.4 173.0Q412.2 173.4 412.2 173.9L412.2 173.9L412.2 178ZM424.8 168.9L425.8 168.9L423.0 179.3L422.0 179.3L424.8 168.9ZM430.8 178.1L430.8 178.1Q429.8 178.1 429.1 177.7Q428.4 177.3 428.1 176.5Q427.7 175.8 427.7 174.8Q427.7 173.8 428.0 173.0Q428.4 172.2 429.1 171.8Q429.7 171.4 430.6 171.4L430.6 171.4Q431.2 171.4 431.7 171.5Q432.2 171.7 432.6 172.1Q433.0 172.5 433.2 173.1Q433.5 173.7 433.5 174.6L433.5 174.6L433.5 175.1L428.8 175.1Q428.8 175.7 429.0 176.2L429.0 176.2Q429.3 176.7 429.7 176.9Q430.2 177.2 430.8 177.2L430.8 177.2Q431.1 177.2 431.5 177.1Q431.8 177.0 432.0 176.8Q432.2 176.5 432.4 176.2L432.4 176.2L433.4 176.5Q433.2 177.0 432.9 177.3Q432.5 177.7 432.0 177.9Q431.4 178.1 430.8 178.1ZM428.8 174.2L428.8 174.2L432.4 174.2Q432.4 173.7 432.2 173.4L432.2 173.4Q432.0 172.9 431.6 172.6Q431.2 172.3 430.6 172.3Q430.0 172.3 429.6 172.6Q429.2 172.9 429.0 173.3L429.0 173.3Q428.8 173.7 428.8 174.2ZM439.0 178L437.9 178L435.4 171.4L436.5 171.4L437.9 175.3Q438.2 175.9 438.3 176.5L438.3 176.5Q438.4 176.8 438.4 177.0L438.4 177.0Q438.5 176.8 438.6 176.5L438.6 176.5Q438.7 175.9 438.9 175.3L438.9 175.3L440.3 171.4L441.5 171.4L439.0 178ZM446.5 178.1L446.5 178.1Q445.5 178.1 444.9 177.7Q444.2 177.3 443.8 176.5Q443.4 175.8 443.4 174.8Q443.4 173.8 443.8 173.0Q444.2 172.2 444.8 171.8Q445.5 171.4 446.4 171.4L446.4 171.4Q446.9 171.4 447.4 171.5Q447.9 171.7 448.3 172.1Q448.7 172.5 449.0 173.1Q449.2 173.7 449.2 174.6L449.2 174.6L449.2 175.1L444.5 175.1Q444.5 175.7 444.7 176.2L444.7 176.2Q445.0 176.7 445.4 176.9Q445.9 177.2 446.5 177.2L446.5 177.2Q446.9 177.2 447.2 177.1Q447.5 177.0 447.7 176.8Q448.0 176.5 448.1 176.2L448.1 176.2L449.1 176.5Q449.0 177.0 448.6 177.3Q448.2 177.7 447.7 177.9Q447.2 178.1 446.5 178.1ZM444.5 174.2L444.5 174.2L448.2 174.2Q448.1 173.7 448.0 173.4L448.0 173.4Q447.8 172.9 447.4 172.6Q447.0 172.3 446.4 172.3Q445.8 172.3 445.4 172.6Q444.9 172.9 444.7 173.3L444.7 173.3Q444.5 173.7 444.5 174.2ZM451.7 169.3L452.8 169.3L452.8 178L451.7 178L451.7 169.3ZM455.5 180.4L455.5 180.4L455.8 179.5L455.9 179.5Q456.2 179.6 456.5 179.5Q456.8 179.5 457.0 179.3Q457.2 179.0 457.3 178.6L457.3 178.6L457.5 178.0L455.0 171.4L456.2 171.4L457.6 175.3Q457.8 175.9 458.0 176.5L458.0 176.5Q458.0 176.8 458.1 177.0L458.1 177.0Q458.2 176.8 458.2 176.5L458.2 176.5Q458.4 175.9 458.6 175.3L458.6 175.3L460.0 171.4L461.1 171.4L458.3 179.0Q458.1 179.5 457.8 179.8Q457.5 180.2 457.1 180.3Q456.8 180.5 456.3 180.5L456.3 180.5Q456.0 180.5 455.8 180.5Q455.6 180.4 455.5 180.4ZM464.4 174.1L464.4 174.1L464.4 178L463.4 178L463.4 171.4L464.4 171.4L464.4 172.7Q464.7 172.0 465.1 171.7L465.1 171.7Q465.7 171.4 466.4 171.4L466.4 171.4Q467.1 171.4 467.6 171.6Q468.1 171.9 468.3 172.5Q468.6 173.0 468.6 173.8L468.6 173.8L468.6 178L467.6 178L467.6 173.9Q467.6 173.2 467.2 172.7Q466.8 172.3 466.1 172.3L466.1 172.3Q465.6 172.3 465.3 172.5Q464.9 172.7 464.7 173.1Q464.4 173.5 464.4 174.1ZM472.5 178L471.5 178L471.5 171.4L472.5 171.4L472.5 172.5L472.6 172.5Q472.7 172.0 473.2 171.7Q473.7 171.4 474.3 171.4L474.3 171.4Q474.4 171.4 474.5 171.4Q474.7 171.4 474.8 171.4L474.8 171.4L474.8 172.4Q474.8 172.4 474.6 172.4Q474.4 172.4 474.2 172.4L474.2 172.4Q473.7 172.4 473.3 172.6Q473.0 172.8 472.7 173.1Q472.5 173.5 472.5 173.9L472.5 173.9L472.5 178ZM478.0 180.4L477.0 180.4L477.0 171.4L478.0 171.4L478.0 172.5L478.1 172.5Q478.2 172.3 478.4 172.1Q478.6 171.8 479.0 171.6Q479.4 171.4 480.0 171.4L480.0 171.4Q480.8 171.4 481.5 171.8Q482.1 172.2 482.5 172.9Q482.8 173.7 482.8 174.7L482.8 174.7Q482.8 175.8 482.5 176.5Q482.1 177.3 481.5 177.7Q480.9 178.1 480.0 178.1L480.0 178.1Q479.4 178.1 479.0 177.9Q478.7 177.7 478.4 177.4Q478.2 177.2 478.1 177.0L478.1 177.0L478.0 177.0L478.0 180.4ZM479.9 177.2L479.9 177.2Q480.5 177.2 480.9 176.9Q481.3 176.5 481.5 176.0Q481.7 175.4 481.7 174.7L481.7 174.7Q481.7 174.1 481.5 173.5Q481.3 173.0 480.9 172.6Q480.5 172.3 479.9 172.3L479.9 172.3Q479.3 172.3 478.9 172.6Q478.5 172.9 478.2 173.5Q478.0 174.0 478.0 174.7L478.0 174.7Q478.0 175.5 478.2 176.0Q478.5 176.6 478.9 176.9Q479.3 177.2 479.9 177.2ZM488.0 178.1L488.0 178.1Q487.1 178.1 486.4 177.7Q485.8 177.3 485.4 176.5Q485.0 175.8 485.0 174.8L485.0 174.8Q485.0 173.7 485.4 173.0Q485.8 172.2 486.4 171.8Q487.1 171.4 488.0 171.4L488.0 171.4Q488.9 171.4 489.6 171.8Q490.3 172.2 490.6 173.0Q491.0 173.7 491.0 174.8L491.0 174.8Q491.0 175.8 490.6 176.5Q490.3 177.3 489.6 177.7Q488.9 178.1 488.0 178.1ZM488.0 177.2L488.0 177.2Q488.7 177.2 489.1 176.9Q489.5 176.5 489.7 176.0Q489.9 175.4 489.9 174.8L489.9 174.8Q489.9 174.1 489.7 173.6Q489.5 173.0 489.1 172.7Q488.7 172.3 488.0 172.3L488.0 172.3Q487.4 172.3 486.9 172.7Q486.5 173.0 486.3 173.6Q486.1 174.1 486.1 174.8L486.1 174.8Q486.1 175.4 486.3 176.0Q486.5 176.5 486.9 176.9Q487.4 177.2 488.0 177.2ZM494.6 178L493.5 178L493.5 171.4L494.6 171.4L494.6 172.5L494.6 172.5Q494.8 172.0 495.3 171.7Q495.7 171.4 496.3 171.4L496.3 171.4Q496.4 171.4 496.6 171.4Q496.8 171.4 496.9 171.4L496.9 171.4L496.9 172.4Q496.8 172.4 496.6 172.4Q496.4 172.4 496.2 172.4L496.2 172.4Q495.8 172.4 495.4 172.6Q495.0 172.8 494.8 173.1Q494.6 173.5 494.6 173.9L494.6 173.9L494.6 178ZM500.3 171.4L501.6 171.4L501.6 172.4L500.3 172.4L500.3 176.3Q500.3 176.7 500.5 176.9Q500.6 177.1 501.1 177.1L501.1 177.1Q501.2 177.1 501.3 177.1Q501.5 177.1 501.6 177.1L501.6 177.1L501.8 178.0Q501.7 178.0 501.4 178.1Q501.2 178.1 501.0 178.1L501.0 178.1Q500.2 178.1 499.7 177.6Q499.2 177.2 499.2 176.4L499.2 176.4L499.2 172.4L498.2 172.4L498.2 171.4L499.2 171.4L499.2 169.9L500.3 169.9L500.3 171.4ZM506.6 178.1L506.6 178.1Q505.8 178.1 505.1 177.7Q504.4 177.3 504.0 176.5Q503.7 175.8 503.7 174.8L503.7 174.8Q503.7 173.7 504.0 173.0Q504.4 172.2 505.1 171.8Q505.8 171.4 506.6 171.4L506.6 171.4Q507.5 171.4 508.2 171.8Q508.9 172.2 509.3 173.0Q509.6 173.7 509.6 174.8L509.6 174.8Q509.6 175.8 509.3 176.5Q508.9 177.3 508.2 177.7Q507.5 178.1 506.6 178.1ZM506.6 177.2L506.6 177.2Q507.3 177.2 507.7 176.9Q508.2 176.5 508.4 176.0Q508.6 175.4 508.6 174.8L508.6 174.8Q508.6 174.1 508.4 173.6Q508.2 173.0 507.7 172.7Q507.3 172.3 506.6 172.3L506.6 172.3Q506.0 172.3 505.6 172.7Q505.1 173.0 504.9 173.6Q504.7 174.1 504.7 174.8L504.7 174.8Q504.7 175.4 504.9 176.0Q505.1 176.5 505.6 176.9Q506.0 177.2 506.6 177.2Z "/></g></svg>